<?xml version="1.0" encoding="utf-8"?>
<!-- Generator: Adobe Illustrator 19.2.1, SVG Export Plug-In . SVG Version: 6.00 Build 0)  -->
<svg version="1.1" id="layer" xmlns="http://www.w3.org/2000/svg" xmlns:xlink="http://www.w3.org/1999/xlink" x="0px" y="0px"
	 viewBox="0 0 652 652" style="enable-background:new 0 0 652 652;" xml:space="preserve">
<path d="M226.6,328.8v35.5h-11.3v-87.7h31.6c9.4,0,16.7,2.4,22.1,7.2c5.3,4.8,8,11.1,8,19c0,8.3-2.6,14.7-7.8,19.2
	c-5.2,4.5-12.6,6.7-22.4,6.7H226.6z M226.6,319.6h20.3c6,0,10.7-1.4,13.9-4.3c3.2-2.9,4.8-7,4.8-12.4c0-5.1-1.6-9.2-4.8-12.3
	c-3.2-3.1-7.6-4.7-13.3-4.8h-21V319.6z M319.2,364.4c-0.6-1.2-1.1-3.5-1.5-6.7c-5.1,5.3-11.1,7.9-18.1,7.9c-6.3,0-11.4-1.8-15.5-5.3
	c-4-3.5-6-8.1-6-13.5c0-6.6,2.5-11.8,7.6-15.5c5-3.7,12.1-5.5,21.3-5.5h10.6v-5c0-3.8-1.1-6.8-3.4-9.1c-2.3-2.3-5.6-3.4-10.1-3.4
	c-3.9,0-7.2,1-9.8,2.9c-2.6,2-3.9,4.3-3.9,7.1h-11c0-3.2,1.1-6.3,3.4-9.2c2.3-3,5.3-5.3,9.2-7c3.9-1.7,8.1-2.6,12.8-2.6
	c7.3,0,13.1,1.8,17.2,5.5c4.2,3.7,6.3,8.7,6.5,15.2v29.3c0,5.9,0.7,10.5,2.2,14v0.9L319.2,364.4L319.2,364.4z M301.1,356.1
	c3.4,0,6.7-0.9,9.7-2.7c3.1-1.8,5.3-4.1,6.7-6.9v-13.1H309c-13.3,0-20,3.9-20,11.7c0,3.4,1.1,6.1,3.4,8
	C294.6,355.2,297.6,356.1,301.1,356.1z M369.3,310.5c-1.7-0.3-3.4-0.4-5.4-0.4c-7.2,0-12,3.1-14.5,9.1v45.2h-10.9v-63.7h10.6
	l0.2,7.4c3.6-5.7,8.6-8.5,15.2-8.5c2.1,0,3.7,0.3,4.8,0.8V310.5z M396.9,285.3v15.4h11.9v8.4h-11.9v39.6c0,2.6,0.5,4.5,1.6,5.7
	c1.1,1.3,2.9,1.9,5.4,1.9c1.2,0,3-0.2,5.2-0.7v8.8c-2.9,0.8-5.7,1.2-8.4,1.2c-4.9,0-8.5-1.5-11-4.4c-2.5-2.9-3.7-7.1-3.7-12.5v-39.5
	h-11.6v-8.4H386v-15.4H396.9z M428.5,300.7l0.4,8c4.9-6.1,11.2-9.2,19.1-9.2c13.5,0,20.3,7.6,20.4,22.8v42.1h-10.9v-42.2
	c0-4.6-1.1-8-3.2-10.2c-2.1-2.2-5.3-3.3-9.6-3.3c-3.5,0-6.6,0.9-9.3,2.8c-2.7,1.9-4.7,4.4-6.2,7.4v45.4h-10.9v-63.7H428.5z
	 M505.1,365.6c-8.6,0-15.7-2.8-21.1-8.5s-8.1-13.3-8.1-22.8v-2c0-6.3,1.2-12,3.6-16.9c2.4-5,5.8-8.8,10.1-11.7
	c4.3-2.8,9-4.2,14.1-4.2c8.3,0,14.7,2.7,19.3,8.2c4.6,5.5,6.9,13.3,6.9,23.4v4.5h-43.2c0.2,6.3,2,11.4,5.5,15.2s8,5.8,13.4,5.8
	c3.9,0,7.1-0.8,9.8-2.4c2.7-1.6,5-3.7,7-6.2l6.7,5.2C523.8,361.5,515.8,365.6,505.1,365.6z M503.8,308.5c-4.4,0-8.1,1.6-11.1,4.8
	c-3,3.2-4.8,7.7-5.5,13.4h31.9v-0.8c-0.3-5.5-1.8-9.8-4.5-12.9C512,310,508.3,308.5,503.8,308.5z M569.5,310.5
	c-1.6-0.3-3.4-0.4-5.4-0.4c-7.2,0-12,3.1-14.5,9.1v45.2h-10.9v-63.7h10.6l0.2,7.4c3.6-5.7,8.6-8.5,15.2-8.5c2.1,0,3.7,0.3,4.8,0.8
	V310.5L569.5,310.5z M611,347.5c0-2.9-1.1-5.2-3.3-6.9c-2.2-1.6-6.1-3-11.6-4.2s-9.9-2.6-13.1-4.2c-3.2-1.6-5.6-3.6-7.2-5.9
	c-1.6-2.3-2.3-5-2.3-8.1c0-5.2,2.2-9.6,6.6-13.3c4.4-3.6,10.1-5.4,16.9-5.4c7.2,0,13.1,1.9,17.6,5.6c4.5,3.7,6.7,8.5,6.7,14.3h-11
	c0-3-1.3-5.5-3.8-7.7c-2.5-2.2-5.7-3.2-9.6-3.2c-4,0-7.1,0.9-9.3,2.6c-2.2,1.7-3.4,4-3.4,6.8c0,2.6,1,4.6,3.1,5.9
	c2.1,1.3,5.8,2.6,11.3,3.8c5.4,1.2,9.8,2.7,13.2,4.4c3.4,1.7,5.9,3.7,7.5,6.1s2.4,5.3,2.4,8.7c0,5.7-2.3,10.3-6.8,13.7
	c-4.5,3.4-10.5,5.2-17.7,5.2c-5.1,0-9.6-0.9-13.5-2.7c-3.9-1.8-7-4.3-9.2-7.6c-2.2-3.2-3.3-6.7-3.3-10.5h10.9
	c0.2,3.7,1.7,6.5,4.4,8.7c2.7,2.1,6.3,3.2,10.8,3.2c4.1,0,7.4-0.8,9.9-2.5C609.7,352.5,611,350.3,611,347.5z M194.8,300.6
	l-14.2,19.1l-14.1-19.1h-18.8l23.5,31.9l-23.5,31.8h19.1l13.9-18.9l13.9,18.9h19.1l-23.5-31.8l23.5-31.9H194.8z M137.7,276.4
	c-5.2,0-9.2,4-9.2,9.3c0,5.3,3.9,9.2,9.2,9.2c5.3,0,9.3-3.9,9.3-9.2C147,280.4,143,276.4,137.7,276.4 M106.2,364.3h16.3v-87.9h-16.3
	V364.3z M129.6,364.3h16.3v-63.7h-16.3V364.3z M53.8,276.4l-32,87.9h17.5L77.7,339l9,25.4h18l-32-87.9H53.8L53.8,276.4z M63.3,298.4
	L77.7,339H48.5L63.3,298.4L63.3,298.4z"/>
</svg>
